<svg width="31.88" height="32" viewBox="0 0 250 250" fill="none" xmlns="http://www.w3.org/2000/svg">
<path fill-rule="evenodd" clip-rule="evenodd" d="M115.014 89.8692H115.346C115.08 90.1601 114.851 90.4789 114.661 90.8272C114.367 90.8184 114.079 90.7845 113.796 90.7393C113.808 90.7367 113.82 90.7325 113.83 90.7267C114.118 90.5697 114.571 90.228 115.014 89.8692ZM112.735 89.8692C113.117 90.3146 113.439 90.6251 113.652 90.7153C113.453 90.681 113.256 90.6422 113.062 90.6039C111.173 90.2311 109.481 89.8973 107.763 94.0623C107.465 94.0719 107.098 94.0557 106.69 94.0376C103.75 93.9076 98.6404 93.6817 101.338 102.269C101.177 102.285 100.98 102.295 100.758 102.305C98.9698 102.391 95.5722 102.553 95.9735 107.141C95.7199 107.34 95.4211 107.524 95.1059 107.719C93.107 108.954 90.4478 110.597 94.4601 118.845C93.476 120.785 90.4812 130.812 98.8352 131.778C101.814 131.531 104.391 130.346 104.931 129.757L105.128 129.81C106.596 130.208 110.576 131.287 112.178 130.589C113.754 129.902 116.287 126.033 115.463 124.341C115.537 124.353 115.613 124.364 115.69 124.375V220.327H87.7955V157.009L70.0224 220.327H47.9179L30.1383 157.608V220.327H2.23737V89.8692H39.2232L59.4851 163.268L78.6594 89.8692H81.3016C82.1647 93.8615 85.7593 96.2583 87.7642 96.8784C89.8729 96.7286 94.111 95.7949 94.194 93.2589C96.6986 94.218 100.082 94.4882 100.846 92.0534C101.134 91.1341 101.329 90.4093 101.457 89.8692H112.735Z" fill="white"></path>
<path d="M115.346 89.8692L115.555 90.0602L115.988 89.5858H115.346V89.8692ZM115.014 89.8692V89.5858H114.914L114.836 89.6488L115.014 89.8692ZM114.661 90.8272L114.652 91.1105L114.826 91.1157L114.91 90.963L114.661 90.8272ZM113.796 90.7393L113.738 90.4618L113.751 91.0192L113.796 90.7393ZM113.83 90.7267L113.966 90.9754L113.966 90.9754L113.83 90.7267ZM113.652 90.7153L113.603 90.9946L113.762 90.4545L113.652 90.7153ZM112.735 89.8692L112.95 89.6847L112.865 89.5858H112.735V89.8692ZM113.062 90.6039L113.117 90.3258V90.3258L113.062 90.6039ZM107.763 94.0623L107.772 94.3456L107.955 94.3398L108.025 94.1704L107.763 94.0623ZM106.69 94.0376L106.678 94.3207L106.69 94.0376ZM101.338 102.269L101.367 102.551L101.713 102.516L101.609 102.184L101.338 102.269ZM100.758 102.305L100.745 102.022L100.758 102.305ZM95.9735 107.141L96.1483 107.364L96.2692 107.269L96.2559 107.116L95.9735 107.141ZM95.1059 107.719L95.2548 107.96V107.96L95.1059 107.719ZM94.4601 118.845L94.7129 118.973L94.7766 118.848L94.715 118.721L94.4601 118.845ZM98.8352 131.778L98.8026 132.06L98.8305 132.063L98.8586 132.061L98.8352 131.778ZM104.931 129.757L105.005 129.483L104.838 129.438L104.722 129.565L104.931 129.757ZM105.128 129.81L105.202 129.536L105.202 129.536L105.128 129.81ZM112.178 130.589L112.064 130.329L112.178 130.589ZM115.463 124.341L115.506 124.061L114.97 123.978L115.208 124.466L115.463 124.341ZM115.69 124.375H115.973V124.128L115.729 124.094L115.69 124.375ZM115.69 220.327V220.61H115.973V220.327H115.69ZM87.7955 220.327H87.512V220.61H87.7955V220.327ZM87.7955 157.009H88.0789L87.5226 156.933L87.7955 157.009ZM70.0224 220.327V220.61H70.2372L70.2952 220.403L70.0224 220.327ZM47.9179 220.327L47.6452 220.404L47.7036 220.61H47.9179V220.327ZM30.1383 157.608L30.4109 157.531L29.8549 157.608H30.1383ZM30.1383 220.327V220.61H30.4217V220.327H30.1383ZM2.23737 220.327H1.95396V220.61H2.23737V220.327ZM2.23737 89.8692V89.5858H1.95396V89.8692H2.23737ZM39.2232 89.8692L39.4964 89.7938L39.439 89.5858H39.2232V89.8692ZM59.4851 163.268L59.2119 163.343L59.4926 164.36L59.7593 163.339L59.4851 163.268ZM78.6594 89.8692V89.5858H78.4406L78.3852 89.7976L78.6594 89.8692ZM81.3016 89.8692L81.5786 89.8093L81.5303 89.5858H81.3016V89.8692ZM87.7642 96.8784L87.6805 97.1492L87.7313 97.1649L87.7843 97.1611L87.7642 96.8784ZM94.194 93.2589L94.2953 92.9943L93.9238 92.852L93.9107 93.2497L94.194 93.2589ZM100.846 92.0534L101.116 92.1382V92.1382L100.846 92.0534ZM101.457 89.8692V89.5858H101.233L101.181 89.8039L101.457 89.8692ZM115.346 89.5858H115.014V90.1526H115.346V89.5858ZM114.91 90.963C115.089 90.6352 115.304 90.3348 115.555 90.0602L115.136 89.6782C114.856 89.9854 114.613 90.3227 114.412 90.6914L114.91 90.963ZM113.751 91.0192C114.042 91.0655 114.343 91.1012 114.652 91.1105L114.669 90.544C114.392 90.5356 114.116 90.5034 113.84 90.4594L113.751 91.0192ZM113.695 90.4779C113.71 90.4697 113.725 90.4646 113.738 90.4618L113.853 91.0168C113.891 91.0089 113.93 90.9954 113.966 90.9754L113.695 90.4779ZM114.836 89.6488C114.39 90.0094 113.957 90.335 113.695 90.4779L113.966 90.9754C114.28 90.8044 114.751 90.4465 115.192 90.0896L114.836 89.6488ZM113.762 90.4545C113.704 90.4297 113.601 90.3586 113.45 90.2184C113.306 90.0836 113.138 89.9032 112.95 89.6847L112.52 90.0537C112.715 90.2807 112.898 90.4782 113.064 90.6326C113.223 90.7815 113.387 90.9107 113.541 90.9762L113.762 90.4545ZM113.007 90.8819C113.201 90.9202 113.401 90.9596 113.603 90.9946L113.7 90.4361C113.505 90.4024 113.312 90.3643 113.117 90.3258L113.007 90.8819ZM108.025 94.1704C108.875 92.1098 109.69 91.2359 110.464 90.8902C111.242 90.5423 112.046 90.6923 113.007 90.8819L113.117 90.3258C112.189 90.1428 111.202 89.9394 110.233 90.3727C109.258 90.8082 108.369 91.8499 107.501 93.9543L108.025 94.1704ZM106.678 94.3207C107.082 94.3386 107.461 94.3555 107.772 94.3456L107.754 93.7791C107.469 93.7882 107.115 93.7727 106.703 93.7545L106.678 94.3207ZM101.609 102.184C100.267 97.9128 100.917 95.993 102.072 95.1094C102.668 94.6534 103.44 94.4349 104.265 94.343C105.09 94.2511 105.939 94.2881 106.678 94.3207L106.703 93.7545C105.971 93.7221 105.078 93.6821 104.203 93.7796C103.328 93.8771 102.439 94.1145 101.728 94.6592C100.267 95.7769 99.712 98.0379 101.068 102.354L101.609 102.184ZM100.772 102.588C100.991 102.578 101.196 102.568 101.367 102.551L101.31 101.987C101.157 102.003 100.969 102.012 100.745 102.022L100.772 102.588ZM96.2559 107.116C96.1585 106.003 96.2938 105.183 96.5599 104.576C96.8245 103.972 97.2259 103.561 97.6925 103.276C98.6434 102.696 99.8649 102.632 100.772 102.588L100.745 102.022C99.8631 102.064 98.4916 102.124 97.397 102.793C96.8408 103.132 96.3562 103.628 96.0408 104.348C95.7268 105.064 95.5879 105.985 95.6912 107.166L96.2559 107.116ZM95.2548 107.96C95.5667 107.767 95.8799 107.574 96.1483 107.364L95.7987 106.918C95.5599 107.105 95.2754 107.281 94.9569 107.478L95.2548 107.96ZM94.715 118.721C92.7161 114.612 92.4164 112.217 92.8032 110.723C93.1848 109.248 94.2503 108.581 95.2548 107.96L94.9569 107.478C93.9625 108.092 92.699 108.863 92.2544 110.581C91.815 112.279 92.1919 114.83 94.2053 118.969L94.715 118.721ZM98.8677 131.497C96.8413 131.262 95.5354 130.485 94.7108 129.446C93.8806 128.401 93.5129 127.06 93.4287 125.66C93.2598 122.85 94.2387 119.908 94.7129 118.973L94.2074 118.717C93.6974 119.722 92.6868 122.764 92.863 125.694C92.9513 127.164 93.3398 128.632 94.2669 129.799C95.1995 130.973 96.652 131.811 98.8026 132.06L98.8677 131.497ZM104.722 129.565C104.62 129.677 104.392 129.843 104.034 130.038C103.684 130.228 103.231 130.434 102.699 130.63C101.636 131.023 100.272 131.375 98.8117 131.496L98.8586 132.061C100.377 131.935 101.791 131.57 102.896 131.162C103.448 130.958 103.927 130.741 104.305 130.536C104.675 130.334 104.972 130.131 105.14 129.948L104.722 129.565ZM105.202 129.536L105.005 129.483L104.857 130.03L105.054 130.084L105.202 129.536ZM112.064 130.329C111.72 130.479 111.219 130.543 110.611 130.534C110.01 130.525 109.332 130.446 108.65 130.331C107.287 130.101 105.937 129.736 105.202 129.536L105.054 130.084C105.788 130.282 107.162 130.655 108.556 130.89C109.253 131.007 109.962 131.091 110.603 131.101C111.237 131.11 111.835 131.047 112.291 130.849L112.064 130.329ZM115.208 124.466C115.372 124.802 115.383 125.284 115.243 125.869C115.105 126.446 114.829 127.084 114.475 127.7C114.121 128.316 113.695 128.9 113.263 129.369C112.827 129.843 112.405 130.18 112.064 130.329L112.291 130.849C112.738 130.654 113.224 130.249 113.681 129.752C114.142 129.25 114.593 128.632 114.966 127.983C115.339 127.335 115.64 126.646 115.795 126C115.947 125.362 115.966 124.726 115.718 124.217L115.208 124.466ZM115.729 124.094C115.654 124.084 115.579 124.073 115.506 124.061L115.419 124.621C115.495 124.633 115.573 124.645 115.651 124.656L115.729 124.094ZM115.973 220.327V124.375H115.407V220.327H115.973ZM87.7955 220.61H115.69V220.043H87.7955V220.61ZM87.512 157.009V220.327H88.0789V157.009H87.512ZM70.2952 220.403L88.0683 157.086L87.5226 156.933L69.7495 220.25L70.2952 220.403ZM47.9179 220.61H70.0224V220.043H47.9179V220.61ZM29.8656 157.686L47.6452 220.404L48.1905 220.249L30.4109 157.531L29.8656 157.686ZM30.4217 220.327V157.608H29.8549V220.327H30.4217ZM2.23737 220.61H30.1383V220.043H2.23737V220.61ZM1.95396 89.8692V220.327H2.52078V89.8692H1.95396ZM39.2232 89.5858H2.23737V90.1526H39.2232V89.5858ZM59.7583 163.192L39.4964 89.7938L38.95 89.9446L59.2119 163.343L59.7583 163.192ZM78.3852 89.7976L59.2109 163.196L59.7593 163.339L78.9336 89.9408L78.3852 89.7976ZM81.3016 89.5858H78.6594V90.1526H81.3016V89.5858ZM87.848 96.6077C86.8895 96.3112 85.5266 95.5801 84.2983 94.4314C83.0724 93.2848 81.9951 91.736 81.5786 89.8093L81.0246 89.9291C81.4711 91.9947 82.6228 93.6404 83.9111 94.8454C85.1972 96.0481 86.634 96.8255 87.6805 97.1492L87.848 96.6077ZM93.9107 93.2497C93.8751 94.3387 92.944 95.1409 91.6275 95.7028C90.3317 96.2559 88.7783 96.5223 87.7441 96.5957L87.7843 97.1611C88.8589 97.0848 90.4788 96.8094 91.85 96.2241C93.2005 95.6478 94.4299 94.7152 94.4773 93.2682L93.9107 93.2497ZM100.575 91.9686C100.241 93.0361 99.337 93.5357 98.1465 93.6467C96.9498 93.7582 95.5232 93.4644 94.2953 92.9943L94.0927 93.5236C95.3694 94.0125 96.8869 94.3333 98.1991 94.211C99.5173 94.0882 100.687 93.5055 101.116 92.1382L100.575 91.9686ZM101.181 89.8039C101.055 90.3366 100.862 91.0549 100.575 91.9686L101.116 92.1382C101.406 91.2133 101.603 90.4819 101.733 89.9345L101.181 89.8039ZM112.735 89.5858H101.457V90.1526H112.735V89.5858Z" fill="#454545"></path>
<path d="M157.244 48.5339C156.686 44.1292 156.602 34.378 160.729 30.6101C161.397 27.415 162.891 13.5556 172.208 17.7747C173.269 14.9393 176.868 9.91555 182.769 12.5035C188.671 15.0914 189.551 19.0984 189.254 20.7784C191.525 22.1148 194.749 25.7883 189.471 29.7908C191.903 32.8939 192.174 34.5181 190.415 35.896C190.896 38.1072 190.91 41.8531 186.443 40.0944C184.892 41.3094 181.423 43.6225 178.71 39.2491C179.806 41.1101 180.609 45.8185 175.468 50.6977C171.429 53.1282 169.269 55.2499 168.693 56.007C166.684 59.1954 162.671 67.3046 162.691 74.2338C163.197 76.242 163.086 77.1522 162.968 77.3562C161.752 78.8936 159.69 83.6982 161.172 90.6175L158.237 91.6655L157.484 85.9111L155.223 82.1735C156.003 81.7846 157.493 80.5113 157.209 78.5299C156.925 76.5485 156.449 75.536 156.246 75.2774L157.244 48.5339Z" fill="#B47DED"></path>
<path d="M172.208 17.7747C162.891 13.5556 161.397 27.415 160.729 30.6101C156.602 34.378 156.686 44.1292 157.244 48.5339L156.246 75.2774C156.449 75.536 156.925 76.5485 157.209 78.5299C157.493 80.5113 156.003 81.7846 155.223 82.1735L157.484 85.9111L158.237 91.6655C158.498 91.5724 159.45 91.2323 161.172 90.6175C159.69 83.6982 161.752 78.8936 162.968 77.3562C163.086 77.1522 163.197 76.242 162.691 74.2338C162.671 67.3046 166.684 59.1954 168.693 56.007C169.269 55.2499 171.429 53.1282 175.468 50.6977C180.715 45.7179 179.77 40.9161 178.642 39.1377M172.208 17.7747C179.661 21.1499 182.281 27.0777 182.659 29.6197M172.208 17.7747C173.269 14.9393 176.868 9.91555 182.769 12.5035C188.671 15.0914 189.551 19.0984 189.254 20.7784C191.525 22.1148 194.749 25.7883 189.471 29.7908C191.903 32.8939 192.174 34.5181 190.415 35.896C190.896 38.1072 190.91 41.8531 186.443 40.0944C184.879 41.3196 181.365 43.6614 178.642 39.1377M168.427 33.5096C168.478 34.7223 169.024 35.51 169.751 36.0613M166.262 52.9039C166.52 52.7012 168.957 46.1169 166.526 44.9328C168.701 43.9798 172.373 40.2681 169.751 36.0613M169.751 36.0613C170.915 36.943 172.542 37.2202 173.352 37.664C177.212 40.566 177.24 38.7909 177.189 35.7425C177.632 37.1612 178.123 38.2744 178.642 39.1377" stroke="#454545" stroke-width="0.557279" stroke-linecap="round" stroke-linejoin="round"></path>
<path d="M112.108 69.1143C117.836 66.0276 123.172 71.6577 125.124 74.8586L126.192 76.8601L127.043 77.9462C127.295 78.0548 127.977 78.4996 128.691 79.4098C129.015 79.8236 129.24 80.5373 129.313 80.8424L129.115 82.0821L130.615 83.9957L131.426 85.0301L131.395 86.056L131.906 87.2413L130.562 88.295L127.857 87.8265L124.334 87.1651L121.503 86.9622L118.849 87.6231L115.459 88.9436C114.935 89.4104 113.745 90.4205 113.184 90.7269C112.622 91.0332 109.762 86.786 108.401 84.6241C108.072 85.411 107.155 87.3372 106.123 88.7471C105.091 90.157 102.293 89.3277 101.023 88.7369C101.003 89.0308 100.81 90.1058 100.199 92.0536C99.4355 94.4884 96.0519 94.2182 93.5473 93.2591C93.4643 95.7951 89.2262 96.7288 87.1175 96.8786C84.8771 96.1856 80.6516 93.2741 80.4708 88.3968C80.3175 84.2596 83.8497 80.9907 88.8509 77.5724C89.6977 64.8045 97.1301 70.6672 99.9241 70.3976C104.264 64.325 108.726 67.6743 112.108 69.1143Z" fill="#B47DED" stroke="#454545" stroke-width="0.557279" stroke-linecap="round" stroke-linejoin="round"></path>
<path d="M163.859 90.2488L161.261 90.3643C159.303 83.7377 161.836 78.8996 163.348 77.3088L162.718 73.6286C162.886 71.2153 163.612 65.4813 165.176 61.8518C170.41 50.8049 177.214 49.5244 179.962 50.265C180.385 49.8779 181.564 48.6758 182.894 46.9651C185.827 43.6652 191.641 46.6221 196.87 49.7847C222.707 41.8287 229.232 64.3698 229.566 68.7172C233.526 69.359 234.563 71.9074 234.058 75.184C238.343 83.3485 232.906 86.4574 229.863 88.4571C226.821 90.4569 222.323 89.3729 216.047 84.3047C208.162 88.9472 205.789 85.4292 203.037 79.7118C194.851 81.5182 193.092 75.5983 193.202 69.3667C186.208 74.6556 186.52 69.4176 184.993 68.694C181.745 72.3916 179.301 71.2337 177.623 69.092C175.902 73.5132 171.591 72.6671 170.427 73.3873C169.262 74.1075 170.564 78.4646 170.001 80.4421C168.023 81.8387 165.082 87.5618 163.859 90.2488Z" fill="#F7AB4D"></path>
<path d="M228.571 81.3691C226.235 76.9248 216.935 66.7993 198.43 61.8518M161.261 90.3643L163.859 90.2488C165.082 87.5618 168.023 81.8387 170.001 80.4421C170.564 78.4646 169.262 74.1075 170.427 73.3873C171.591 72.6671 175.902 73.5132 177.623 69.092C179.301 71.2337 181.745 72.3916 184.993 68.694C186.52 69.4176 186.208 74.6556 193.202 69.3667C193.092 75.5983 194.851 81.5182 203.037 79.7118C205.789 85.4292 208.162 88.9472 216.047 84.3047C222.323 89.3729 226.821 90.4569 229.863 88.4571C232.906 86.4574 238.343 83.3485 234.058 75.184C234.563 71.9074 233.526 69.359 229.566 68.7172C229.232 64.3698 222.707 41.8287 196.87 49.7847C191.641 46.6221 185.827 43.6652 182.894 46.9651C181.564 48.6758 180.385 49.8779 179.962 50.265C177.214 49.5244 170.41 50.8049 165.176 61.8518C163.612 65.4813 162.886 71.2153 162.718 73.6286L163.348 77.3088C161.836 78.8996 159.303 83.7377 161.261 90.3643Z" stroke="#454545" stroke-width="0.743039"></path>
<path d="M153.044 93.4799L158.014 91.0875C158.79 90.714 157.993 87.0836 157.498 85.3151C157.228 84.9703 156.379 83.7378 155.144 81.5662C159.143 78.2323 156.97 75.6009 155.383 74.702C155.61 74.3438 155.828 73.9799 156.037 73.6298L156.066 73.5813C160.331 73.9114 160.419 72.4252 160.641 68.6634L160.641 68.6604C164.119 64.6829 160.093 61.9947 158.715 60.2362C161.482 57.4829 160.001 52.7168 159.393 51.941C153.195 44.7773 151.147 47.3838 146.74 47.8321C138.091 38.4989 133.096 45.3346 132.165 46.0641C129.665 47.7732 129.123 55.7107 128.828 58.5298C125.659 60.3452 127.582 63.0121 127.171 64.0855C122.639 66.7184 124.662 69.725 124.485 71.9501C121.825 74.2016 126.601 76.887 127.363 78.711C126.788 80.3636 128.371 82.4839 129.235 83.3375C128.912 83.8132 128.569 85.0446 129.781 86.1651C131.263 87.6883 139.048 89.9924 145.875 91.7463C148.56 92.4363 151.097 93.0412 153.044 93.4799Z" fill="#F7AB4D"></path>
<path d="M132.172 66.845C130.652 68.9541 134.362 71.5569 135.379 72.4291C136.396 73.3012 138.96 71.4595 139.516 69.1868C145.946 79.8419 146.107 75.041 147.366 72.3854C151.152 80.0421 153.574 77.5529 155.383 74.702M137.196 77.5169C137.067 79.0926 137.886 82.9361 142.193 85.7051C146.5 88.474 146.442 90.8863 145.875 91.7463M145.875 91.7463C148.56 92.4363 151.097 93.0412 153.044 93.4799L158.014 91.0875C158.79 90.714 157.993 87.0836 157.498 85.3151C157.228 84.9703 156.379 83.7378 155.144 81.5662C159.143 78.2323 156.97 75.6009 155.383 74.702M145.875 91.7463C139.048 89.9924 131.263 87.6883 129.781 86.1651C128.569 85.0446 128.912 83.8132 129.235 83.3375C128.371 82.4839 126.788 80.3636 127.363 78.711C126.601 76.887 121.825 74.2016 124.485 71.9501C124.662 69.725 122.639 66.7184 127.171 64.0855C127.582 63.0121 125.659 60.3452 128.828 58.5298C129.123 55.7107 129.665 47.7732 132.165 46.0641C133.096 45.3346 138.091 38.4989 146.74 47.8321C151.147 47.3838 153.195 44.7773 159.393 51.941C160.001 52.7168 161.482 57.4829 158.715 60.2362C160.093 61.9947 164.119 64.6829 160.641 68.6604C160.419 72.4244 160.332 73.9115 156.066 73.5813C155.848 73.9463 155.621 74.3273 155.383 74.702" stroke="#454545" stroke-width="0.743039" stroke-linecap="round" stroke-linejoin="round"></path>
<path d="M154.703 94.9207L150.685 97.569C150.516 97.68 146.104 97.9027 145.79 98.5666C145.538 99.0977 142.64 98.1689 141.222 97.6381C139.318 103.304 138.21 101.251 136.133 100.625C132.848 106.872 128.541 101.482 127.687 99.6468C126.833 97.8116 124.602 99.2258 123.775 99.8743C122.947 100.523 126.384 102.671 127.885 103.415C127.591 105.064 125.241 105.153 123.576 105.373C126.573 109.368 122.579 110.634 120.207 110.768C121.416 111.991 124.016 114.862 124.746 116.56C126.835 124.339 118.997 124.989 114.816 124.342C115.641 126.033 113.108 129.902 111.531 130.589C109.851 131.321 105.553 130.098 104.284 129.757C103.744 130.346 101.167 131.532 98.1885 131.779C89.8345 130.812 92.8293 120.785 93.8135 118.845C89.1684 109.296 93.4649 108.6 95.3268 107.141C94.8758 101.985 99.2226 102.419 100.692 102.269C97.619 92.4892 104.673 94.1405 107.116 94.0625C109.304 88.7584 111.449 90.7503 114.014 90.8274C118.347 82.8911 142.946 90.2495 154.703 94.9207Z" fill="#F7AB4D" stroke="#454545" stroke-width="0.743039" stroke-linecap="round" stroke-linejoin="round"></path>
<path d="M140.588 97.4453C137.251 95.8861 125.828 95.6307 122.318 96.2083C117.704 96.9677 103.428 100.52 97.7833 110.787C93.2675 119 96.2454 126.295 98.2988 128.915" stroke="#454545" stroke-width="0.557279"></path>
<path d="M213.56 172.285C212.38 176.258 210.819 179.481 208.922 181.87C207.036 184.234 204.96 185.882 202.574 186.891C200.057 187.955 197.423 188.499 194.744 188.499H179.326V121.697H190.893C195.676 121.697 199.69 122.514 202.824 124.127C205.851 125.685 208.199 127.838 210.003 130.708C211.86 133.663 213.222 137.31 214.053 141.549C214.939 146.076 215.39 151.263 215.39 156.962C215.39 163.039 214.774 168.194 213.56 172.285ZM241.052 126.506C238.625 118.451 235.185 111.614 230.83 106.185C226.461 100.743 221.224 96.6061 215.264 93.8907C209.406 91.2226 203.013 89.8692 196.257 89.8692H150.053V220.327H196.257C204.294 220.327 211.423 218.616 217.446 215.243C223.491 211.853 228.618 207.124 232.685 201.189C236.72 195.301 239.769 188.231 241.746 180.191C243.682 172.324 244.662 163.654 244.662 154.416C244.662 143.847 243.448 134.456 241.052 126.506Z" fill="white" stroke="#454545" stroke-width="0.566819"></path>
</svg>